<mxfile host="Electron" modified="2024-05-20T11:33:24.832Z" agent="Mozilla/5.0 (X11; Linux x86_64) AppleWebKit/537.36 (KHTML, like Gecko) draw.io/24.0.4 Chrome/120.0.6099.109 Electron/28.1.0 Safari/537.36" etag="T5Wz9XGW_BvakBseZWNx" version="24.0.4" type="device">
  <diagram name="第 1 页" id="0YkqaQD2wBHX1h_gzPAO">
    <mxGraphModel dx="1646" dy="518" grid="1" gridSize="5" guides="1" tooltips="1" connect="1" arrows="1" fold="1" page="1" pageScale="1" pageWidth="827" pageHeight="1169" math="0" shadow="0">
      <root>
        <mxCell id="0" />
        <mxCell id="1" parent="0" />
        <mxCell id="JJM408C5a84mWfNDPD3m-1" value="显著性&lt;div style=&quot;font-size: 12px;&quot;&gt;目标检测&lt;/div&gt;" style="ellipse;whiteSpace=wrap;html=1;fontFamily=宋体;fontSize=12;" vertex="1" parent="1">
          <mxGeometry x="-60" y="255" width="100" height="60" as="geometry" />
        </mxCell>
        <mxCell id="JJM408C5a84mWfNDPD3m-3" value="RGB-D显著性&lt;div style=&quot;font-size: 12px;&quot;&gt;目标检测&lt;/div&gt;" style="ellipse;whiteSpace=wrap;html=1;fontFamily=宋体;fontSize=12;" vertex="1" parent="1">
          <mxGeometry x="160" y="255" width="100" height="60" as="geometry" />
        </mxCell>
        <mxCell id="JJM408C5a84mWfNDPD3m-4" value="RGB显著性&lt;div style=&quot;font-size: 12px;&quot;&gt;目标检测&lt;/div&gt;" style="ellipse;whiteSpace=wrap;html=1;fontFamily=宋体;fontSize=12;" vertex="1" parent="1">
          <mxGeometry x="160" y="180" width="100" height="60" as="geometry" />
        </mxCell>
        <mxCell id="JJM408C5a84mWfNDPD3m-5" value="光场显著性&lt;div style=&quot;font-size: 12px;&quot;&gt;目标检测&lt;/div&gt;" style="ellipse;whiteSpace=wrap;html=1;fontFamily=宋体;fontSize=12;" vertex="1" parent="1">
          <mxGeometry x="160" y="330" width="100" height="60" as="geometry" />
        </mxCell>
        <mxCell id="JJM408C5a84mWfNDPD3m-6" value="3D深度学习方法" style="rounded=1;whiteSpace=wrap;html=1;fontFamily=宋体;fontSize=12;" vertex="1" parent="1">
          <mxGeometry x="360" y="250" width="140" height="30" as="geometry" />
        </mxCell>
        <mxCell id="JJM408C5a84mWfNDPD3m-7" value="3D传统方法" style="rounded=1;whiteSpace=wrap;html=1;fontFamily=宋体;fontSize=12;" vertex="1" parent="1">
          <mxGeometry x="360" y="290" width="140" height="30" as="geometry" />
        </mxCell>
        <mxCell id="JJM408C5a84mWfNDPD3m-8" value="2D深度学习方法" style="rounded=1;whiteSpace=wrap;html=1;fontFamily=宋体;fontSize=12;" vertex="1" parent="1">
          <mxGeometry x="360" y="170" width="140" height="30" as="geometry" />
        </mxCell>
        <mxCell id="JJM408C5a84mWfNDPD3m-9" value="2D传统方法" style="rounded=1;whiteSpace=wrap;html=1;fontFamily=宋体;fontSize=12;" vertex="1" parent="1">
          <mxGeometry x="360" y="210" width="140" height="30" as="geometry" />
        </mxCell>
        <mxCell id="JJM408C5a84mWfNDPD3m-10" value="4D深度学习方法" style="rounded=1;whiteSpace=wrap;html=1;fontFamily=宋体;fontSize=12;" vertex="1" parent="1">
          <mxGeometry x="360" y="330" width="140" height="30" as="geometry" />
        </mxCell>
        <mxCell id="JJM408C5a84mWfNDPD3m-11" value="4D传统方法" style="rounded=1;whiteSpace=wrap;html=1;fontFamily=宋体;fontSize=12;" vertex="1" parent="1">
          <mxGeometry x="360" y="370" width="140" height="30" as="geometry" />
        </mxCell>
        <mxCell id="JJM408C5a84mWfNDPD3m-12" value="" style="endArrow=classic;html=1;rounded=0;entryX=0;entryY=0.5;entryDx=0;entryDy=0;exitX=1;exitY=0.5;exitDx=0;exitDy=0;fontFamily=宋体;fontSize=12;" edge="1" parent="1" source="JJM408C5a84mWfNDPD3m-1" target="JJM408C5a84mWfNDPD3m-4">
          <mxGeometry width="50" height="50" relative="1" as="geometry">
            <mxPoint x="220" y="380" as="sourcePoint" />
            <mxPoint x="270" y="330" as="targetPoint" />
          </mxGeometry>
        </mxCell>
        <mxCell id="JJM408C5a84mWfNDPD3m-13" value="" style="endArrow=classic;html=1;rounded=0;entryX=0;entryY=0.5;entryDx=0;entryDy=0;exitX=1;exitY=0.5;exitDx=0;exitDy=0;fontFamily=宋体;fontSize=12;" edge="1" parent="1" source="JJM408C5a84mWfNDPD3m-1" target="JJM408C5a84mWfNDPD3m-3">
          <mxGeometry width="50" height="50" relative="1" as="geometry">
            <mxPoint x="50" y="290" as="sourcePoint" />
            <mxPoint x="170" y="220" as="targetPoint" />
          </mxGeometry>
        </mxCell>
        <mxCell id="JJM408C5a84mWfNDPD3m-14" value="" style="endArrow=classic;html=1;rounded=0;entryX=0;entryY=0.5;entryDx=0;entryDy=0;exitX=1;exitY=0.5;exitDx=0;exitDy=0;fontFamily=宋体;fontSize=12;" edge="1" parent="1" source="JJM408C5a84mWfNDPD3m-1" target="JJM408C5a84mWfNDPD3m-5">
          <mxGeometry width="50" height="50" relative="1" as="geometry">
            <mxPoint x="60" y="300" as="sourcePoint" />
            <mxPoint x="170" y="290" as="targetPoint" />
          </mxGeometry>
        </mxCell>
        <mxCell id="JJM408C5a84mWfNDPD3m-15" value="" style="endArrow=classic;html=1;rounded=0;entryX=0;entryY=0.5;entryDx=0;entryDy=0;exitX=1;exitY=0.5;exitDx=0;exitDy=0;fontFamily=宋体;fontSize=12;" edge="1" parent="1" source="JJM408C5a84mWfNDPD3m-4" target="JJM408C5a84mWfNDPD3m-8">
          <mxGeometry width="50" height="50" relative="1" as="geometry">
            <mxPoint x="320" y="290" as="sourcePoint" />
            <mxPoint x="370" y="240" as="targetPoint" />
          </mxGeometry>
        </mxCell>
        <mxCell id="JJM408C5a84mWfNDPD3m-16" value="" style="endArrow=classic;html=1;rounded=0;entryX=0;entryY=0.5;entryDx=0;entryDy=0;fontFamily=宋体;fontSize=12;" edge="1" parent="1" target="JJM408C5a84mWfNDPD3m-9">
          <mxGeometry width="50" height="50" relative="1" as="geometry">
            <mxPoint x="260" y="210" as="sourcePoint" />
            <mxPoint x="365" y="190" as="targetPoint" />
          </mxGeometry>
        </mxCell>
        <mxCell id="JJM408C5a84mWfNDPD3m-17" value="" style="endArrow=classic;html=1;rounded=0;entryX=0;entryY=0.5;entryDx=0;entryDy=0;exitX=1;exitY=0.5;exitDx=0;exitDy=0;fontFamily=宋体;fontSize=12;" edge="1" parent="1" target="JJM408C5a84mWfNDPD3m-6">
          <mxGeometry width="50" height="50" relative="1" as="geometry">
            <mxPoint x="260" y="285" as="sourcePoint" />
            <mxPoint x="360" y="260" as="targetPoint" />
          </mxGeometry>
        </mxCell>
        <mxCell id="JJM408C5a84mWfNDPD3m-18" value="" style="endArrow=classic;html=1;rounded=0;entryX=0;entryY=0.5;entryDx=0;entryDy=0;fontFamily=宋体;fontSize=12;" edge="1" parent="1" target="JJM408C5a84mWfNDPD3m-7">
          <mxGeometry width="50" height="50" relative="1" as="geometry">
            <mxPoint x="260" y="285" as="sourcePoint" />
            <mxPoint x="360" y="300" as="targetPoint" />
          </mxGeometry>
        </mxCell>
        <mxCell id="JJM408C5a84mWfNDPD3m-19" value="" style="endArrow=classic;html=1;rounded=0;entryX=0;entryY=0.5;entryDx=0;entryDy=0;exitX=1;exitY=0.5;exitDx=0;exitDy=0;fontFamily=宋体;fontSize=12;" edge="1" parent="1" target="JJM408C5a84mWfNDPD3m-10">
          <mxGeometry width="50" height="50" relative="1" as="geometry">
            <mxPoint x="260" y="360" as="sourcePoint" />
            <mxPoint x="360" y="335" as="targetPoint" />
          </mxGeometry>
        </mxCell>
        <mxCell id="JJM408C5a84mWfNDPD3m-20" value="" style="endArrow=classic;html=1;rounded=0;entryX=0;entryY=0.5;entryDx=0;entryDy=0;fontFamily=宋体;fontSize=12;" edge="1" parent="1" target="JJM408C5a84mWfNDPD3m-11">
          <mxGeometry width="50" height="50" relative="1" as="geometry">
            <mxPoint x="260" y="360" as="sourcePoint" />
            <mxPoint x="360" y="375" as="targetPoint" />
          </mxGeometry>
        </mxCell>
      </root>
    </mxGraphModel>
  </diagram>
</mxfile>
